#define bstack_width 12
#define bstack_height 13
static unsigned char bstack_bits[] = {
   0x00, 0x00, 0x00, 0x00, 0xfc, 0x03, 0xfc, 0x03, 0xfc, 0x03, 0xfc, 0x03,
   0x00, 0x00, 0x6c, 0x03, 0x6c, 0x03, 0x6c, 0x03, 0x00, 0x00, 0x00, 0x00,
   0x00, 0x00 };
