#define circle_width 10
#define circle_height 10
static unsigned char circle_bits[] = {
   0x30, 0x00, 0x30, 0x00, 0x00, 0x00, 0x78, 0x00, 0x7b, 0x03, 0x7b, 0x03,
   0x78, 0x00, 0x00, 0x00, 0x30, 0x00, 0x30, 0x00 };
