#define clock5_width 8
#define clock5_height 8
static unsigned char clock5_bits[] = {
   0x00, 0x7c, 0xee, 0xee, 0x8e, 0xfe, 0xfe, 0x7c};
