#define float_width 12
#define float_height 13
static unsigned char float_bits[] = {
   0x00, 0x00, 0x00, 0x00, 0x00, 0x00, 0xe0, 0x03, 0xe0, 0x03, 0xe0, 0x03,
   0x0c, 0x00, 0x7c, 0x00, 0x7c, 0x00, 0x00, 0x00, 0x00, 0x00, 0x00, 0x00,
   0x00, 0x00 };
