#define full_width 10
#define full_height 10
static unsigned char full_bits[] = {
   0xff, 0x03, 0x01, 0x02, 0xfd, 0x02, 0xfd, 0x02, 0xfd, 0x02, 0xfd, 0x02,
   0xfd, 0x02, 0xfd, 0x02, 0x01, 0x02, 0xff, 0x03 };
