#define monocle2_width 12
#define monocle2_height 13
static unsigned char monocle2_bits[] = {
   0x00, 0x00, 0x00, 0x00, 0xfc, 0x03, 0x7c, 0x02, 0x7c, 0x02, 0xfc, 0x03,
   0xfc, 0x03, 0xe4, 0x03, 0xe4, 0x03, 0xfc, 0x03, 0x00, 0x00, 0x00, 0x00,
   0x00, 0x00 };
