#define monocle1_width 12
#define monocle1_height 13
static unsigned char monocle1_bits[] = {
   0x00, 0x00, 0x00, 0x00, 0xfc, 0x03, 0xfc, 0x03, 0xfc, 0x03, 0x9c, 0x03,
   0x9c, 0x03, 0xfc, 0x03, 0xfc, 0x03, 0xfc, 0x03, 0x00, 0x00, 0x00, 0x00,
   0x00, 0x00 };
