#define monocle3_width 12
#define monocle3_height 13
static unsigned char monocle3_bits[] = {
   0x00, 0x00, 0x00, 0x00, 0xfc, 0x03, 0x7c, 0x02, 0x7c, 0x02, 0x9c, 0x03,
   0x9c, 0x03, 0xe4, 0x03, 0xe4, 0x03, 0xfc, 0x03, 0x00, 0x00, 0x00, 0x00,
   0x00, 0x00 };
