#define msptall_width 10
#define msptall_height 10
static unsigned char msptall_bits[] = {
   0xff, 0x03, 0xff, 0x03, 0xff, 0x03, 0xff, 0x03, 0x00, 0x00, 0x00, 0x00,
   0xcf, 0x03, 0xcf, 0x03, 0xcf, 0x03, 0xcf, 0x03 };
