#define monocle_width 12
#define monocle_height 13
static unsigned char monocle_bits[] = {
   0x00, 0x00, 0x00, 0x00, 0xfc, 0x03, 0xfc, 0x03, 0x0c, 0x03, 0x0c, 0x03,
   0x0c, 0x03, 0x0c, 0x03, 0xfc, 0x03, 0xfc, 0x03, 0x00, 0x00, 0x00, 0x00,
   0x00, 0x00 };
