#define monocle5_width 12
#define monocle5_height 13
static unsigned char monocle5_bits[] = {
   0x00, 0x00, 0x00, 0x00, 0xfc, 0x03, 0x64, 0x02, 0x64, 0x02, 0x9c, 0x03,
   0x9c, 0x03, 0x64, 0x02, 0x64, 0x02, 0xfc, 0x03, 0x00, 0x00, 0x00, 0x00,
   0x00, 0x00 };
