#define monocle0_width 12
#define monocle0_height 13
static unsigned char monocle0_bits[] = {
   0x00, 0x00, 0x00, 0x00, 0xfc, 0x03, 0xfc, 0x03, 0xfc, 0x03, 0xfc, 0x03,
   0xfc, 0x03, 0xfc, 0x03, 0xfc, 0x03, 0xfc, 0x03, 0x00, 0x00, 0x00, 0x00,
   0x00, 0x00 };
