#define sptall_width 10
#define sptall_height 10
static unsigned char sptall_bits[] = {
   0xcf, 0x03, 0xcf, 0x03, 0xcf, 0x03, 0xcf, 0x03, 0x0f, 0x00, 0x0f, 0x00,
   0xcf, 0x03, 0xcf, 0x03, 0xcf, 0x03, 0xcf, 0x03 };
