#define tile_width 12
#define tile_height 13
static unsigned char tile_bits[] = {
   0x00, 0x00, 0x00, 0x00, 0xbc, 0x03, 0xbc, 0x03, 0x3c, 0x00, 0xbc, 0x03,
   0xbc, 0x03, 0x3c, 0x00, 0xbc, 0x03, 0xbc, 0x03, 0x00, 0x00, 0x00, 0x00,
   0x00, 0x00 };
