#define clock4_width 8
#define clock4_height 8
static unsigned char clock4_bits[] = {
   0x00, 0xfe, 0xee, 0xee, 0x8e, 0xfe, 0xfe, 0xfe};
