#define vol4_width 8
#define vol4_height 8
static unsigned char vol4_bits[] = {
   0x00, 0x48, 0x8c, 0xaf, 0xaf, 0xaf, 0x8c, 0x48};
