#define shade_width 5
#define shade_height 5
static unsigned char shade_bits[] = {
   0x00, 0x04, 0x0e, 0x1f, 0x00 };
