#define max_toggled_width 7
#define max_toggled_height 7
static unsigned char max_toggled_bits[] = {
   0x10, 0x30, 0x70, 0x00, 0x07, 0x06, 0x04 };
