#define grid_width 10
#define grid_height 10
static unsigned char grid_bits[] = {
   0x00, 0x00, 0xb6, 0x01, 0xb6, 0x01, 0x00, 0x00, 0xb6, 0x01, 0xb6, 0x01,
   0x00, 0x00, 0xb6, 0x01, 0xb6, 0x01, 0x00, 0x00 };
