#define max_width 6
#define max_height 6
static unsigned char max_bits[] = {
   0x3c, 0x38, 0x31, 0x23, 0x07, 0x0f };
