#define monocle4_width 12
#define monocle4_height 13
static unsigned char monocle4_bits[] = {
   0x00, 0x00, 0x00, 0x00, 0xfc, 0x03, 0x64, 0x02, 0x64, 0x02, 0xfc, 0x03,
   0xfc, 0x03, 0x64, 0x02, 0x64, 0x02, 0xfc, 0x03, 0x00, 0x00, 0x00, 0x00,
   0x00, 0x00 };
