#define shade_toggled_width 5
#define shade_toggled_height 5
static unsigned char shade_toggled_bits[] = {
   0x00, 0x1f, 0x0e, 0x04, 0x00 };
